<svg width="252" height="156" viewBox="0 0 252 156" fill="none" xmlns="http://www.w3.org/2000/svg">
<path opacity="0.08" d="M430.156 0C416.794 0 403.982 5.51797 394.584 15.3258L303.845 111.436C298.866 116.651 292.193 119.533 285.098 119.533H285.059C277.996 119.533 271.329 116.69 266.344 111.548L255.473 100.316L350.619 0H321.785C308.418 0 295.612 5.51797 286.208 15.3258L230.415 74.4251L173.034 15.1407C163.646 5.44506 150.917 0 137.638 0H108.376L205.759 100.546L195.475 111.436C190.501 116.651 183.823 119.533 176.727 119.533H176.694C169.632 119.533 162.959 116.69 157.98 111.548L64.6638 15.1407C55.2761 5.44506 42.5412 0 29.2677 0H0L133.016 137.332C144.668 149.366 160.173 156 176.694 156H176.837C193.238 156 208.958 149.237 220.5 137.203L230.772 126.369L241.391 137.332C253.038 149.366 268.543 156 285.07 156H285.213C301.614 156 317.328 149.237 328.876 137.203L459 0H430.167H430.156Z" fill="white"/>
</svg>
